# AST/ASF file generated using VICON BodyLanguage
# -----------------------------------------------
:version 1.10
:name VICON
:units
  mass 1.0
  length 0.45
  angle deg
:documentation
   .ast/.asf automatically generated from VICON data using
   VICON BodyBuilder and BodyLanguage model FoxedUp or BRILLIANT.MOD
:root
   order TX TY TZ RX RY RZ
   axis XYZ
   position 0 0 0  
   orientation 0 0 0 
:bonedata
  begin
     id 1 
     name lhipjoint
     direction 0.627457 -0.725269 0.283342 
     length 2.53237 
     axis 0 0 0  XYZ
  end
  begin
     id 2 
     name lfemur
     direction 0.34202 -0.939693 0  
     length 7.32496  
     axis 0 0 20  XYZ
    dof rx ry rz
    limits (-160.0 20.0)
           (-70.0 70.0)
           (-60.0 70.0)
  end
  begin
     id 3 
     name ltibia
     direction 0.34202 -0.939693 0   
     length 7.69674   
     axis 0 0 20   XYZ
    dof rx
    limits (-10.0 170.0)
  end
  begin
     id 4 
     name lfoot
     direction 0.127289 -0.349722 0.928166   
     length 1.8612   
     axis -90 7.62852e-016 20   XYZ
    dof rx rz
    limits (-45.0 90.0)
           (-70.0 20.0)
  end
  begin
     id 5 
     name ltoes
     direction 1.53561e-011 -4.21864e-011 1   
     length 0.925608   
     axis -90 7.62852e-016 20   XYZ
    dof rx
    limits (-90.0 20.0)
  end
  begin
     id 6 
     name rhipjoint
     direction -0.609094 -0.738725 0.288599   
     length 2.48624  
     axis 0 0 0  XYZ 
  end
  begin
     id 7 
     name rfemur
     direction -0.34202 -0.939693 0   
     length 7.44259   
     axis 0 0 -20   XYZ
    dof rx ry rz
    limits (-160.0 20.0)
           (-70.0 70.0)
           (-70.0 60.0)
  end
  begin
     id 8 
     name rtibia
     direction -0.34202 -0.939693 0   
     length 7.7781   
     axis 0 0 -20   XYZ
    dof rx
    limits (-10.0 170.0)
 end
 begin
     id 9 
     name rfoot
     direction -0.107015 -0.294021 0.949789   
     length 2.14741  
     axis -90 -7.62852e-016 -20   XYZ
    dof rx rz
    limits (-45.0 90.0)
           (-20.0 70.0)
  end
  begin
     id 10 
     name rtoes
     direction -1.53497e-011 -4.21924e-011 1   
     length 1.0706   
     axis -90 -7.62852e-016 -20   XYZ
    dof rx
    limits (-90.0 20.0)
  end
  begin
     id 11 
     name lowerback
     direction -0.0142066 0.998112 -0.0597545   
     length 1.86627   
     axis 0 0 0   XYZ
    dof rx ry rz
    limits (-20.0 45.0)
           (-30.0 30.0)
           (-30.0 30.0)
  end
  begin
     id 12 
     name upperback
     direction 0.00547294 0.999744 0.0219437   
     length 1.86272   
     axis 0 0 0   XYZ
    dof rx ry rz
    limits (-20.0 45.0)
           (-30.0 30.0)
           (-30.0 30.0)
  end
  begin
     id 13 
     name thorax
     direction 0.0116162 0.998704 0.0495538   
     length 1.8703   
     axis 0 0 0   XYZ
    dof rx ry rz
    limits (-20.0 45.0)
           (-30.0 30.0)
           (-30.0 30.0)
  end
  begin
     id 14 
     name lowerneck
     direction -0.0106574 0.998739 0.0490586   
     length 1.8074   
     axis 0 0 0   XYZ
    dof rx ry rz
    limits (-20.0 45.0)
           (-30.0 30.0)
           (-30.0 30.0)
  end
  begin
     id 15 
     name upperneck
     direction 0.030527 0.976587 -0.212944   
     length 1.80681   
     axis 0 0 0   XYZ
    dof rx ry rz
    limits (-20.0 45.0)
           (-30.0 30.0)
           (-30.0 30.0)
  end
  begin
     id 16
     name head
     direction 0.00869225 0.997035 -0.0764531  
     length 1.8313  
     axis 0 0 0   XYZ
    dof rx ry rz
    limits (-20.0 45.0)
           (-30.0 30.0)
           (-30.0 30.0)
  end
  begin
     id 17 
     name lclavicle
     direction 0.915958 0.399447 0.0382386  
     length 3.78965  
     axis 0 0 0   XYZ
    dof ry rz
    limits (-20.0 10.0)
           (0.0 20.0)
  end
  begin
     id 18 
     name lhumerus
     direction 1 -4.48967e-011 3.19303e-027   
     length 4.78095   
     axis -180 -30 -90   XYZ
    dof rx ry rz
    limits (-60.0 90.0)
           (-90.0 90.0)
           (-90.0 90.0)
  end
  begin
     id 19
     name lradius
     direction 1 -4.48967e-011 -3.77974e-027   
     length 3.58615   
     axis -180 -30 -90   XYZ
    dof rx
    limits (-10.0 170.0)
  end
  begin
     id 20
     name lwrist
     direction 1 -4.48927e-011 1.2807e-027   
     length 1.79307   
     axis 1.91374e-015 90 90   XYZ
    dof ry
    limits (-180.0 0.0)
 end
  begin
     id 21 
     name lhand
     direction 1 -4.49036e-011 2.5614e-027   
     length 0.659812   
     axis -1.63439e-015 90 90   XYZ
    dof rx rz
    limits (-90.0 90.0)
           (-45.0 45.0)
  end
  begin
     id 22 
     name lfingers
     direction 1 -4.49052e-011 5.1228e-027   
     length 0.531957   
     axis -3.26879e-015 90 90   XYZ
    dof rx
    limits (0.0 90.0)
  end
  begin
     id 23
     name lthumb
     direction 0.707107 -6.35012e-011 0.707107   
     length 0.763787   
     axis -90 45 2.85299e-015   XYZ
    dof rx rz
    limits (-45.0 45.0)
           (-45.0 45.0)
  end
  begin
     id 24 
     name rclavicle
     direction -0.895351 0.435135 0.0948887   
     length 3.70497  
     axis 0 0 0   XYZ 
    dof ry rz
    limits (-10.0 20.0)
           (-20.0 0.0)
  end
  begin
     id 25 
     name rhumerus
     direction -1 -4.48971e-011 2.38946e-027  
     length 4.48913   
     axis -180 30 90   XYZ
    dof rx ry rz
    limits (-90.0 60.0)
           (-90.0 90.0)
           (-90.0 90.0)
  end
  begin
     id 26 
     name rradius
     direction -1 -4.4895e-011 4.38668e-027   
     length 3.7051   
     axis -180 30 90   XYZ
    dof rx
    limits (-10.0 170.0)
  end
  begin
     id 27 
     name rwrist
     direction -1 -4.49007e-011 1.2807e-027   
     length 1.85255   
     axis 1.91374e-015 -90 -90   XYZ
    dof ry
    limits (-180.0 0.0)
  end
  begin
     id 28
     name rhand
     direction -1 -4.48851e-011 2.5614e-027   
     length 0.449136   
     axis -1.63439e-015 -90 -90   XYZ
    dof rx rz
    limits (-90.0 90.0)
           (-45.0 45.0)
  end
  begin
     id 29
     name rfingers
     direction -1 -4.49128e-011 5.1228e-027   
     length 0.362105   
     axis -3.26879e-015 -90 -90   XYZ
    dof rx
    limits (0.0 90.0)
  end
  begin
     id 30
     name rthumb
     direction -0.707107 -6.34851e-011 0.707107   
     length 0.519912   
     axis -90 -45 -2.85299e-015   XYZ
    dof rx rz
    limits (-45.0 45.0)
           (-45.0 45.0)
  end
:hierarchy
  begin
    root lhipjoint rhipjoint lowerback
    lhipjoint lfemur
    lfemur ltibia
    ltibia lfoot
    lfoot ltoes
    rhipjoint rfemur
    rfemur rtibia
    rtibia rfoot
    rfoot rtoes
    lowerback upperback
    upperback thorax
    thorax lowerneck lclavicle rclavicle
    lowerneck upperneck
    upperneck head
    lclavicle lhumerus
    lhumerus lradius
    lradius lwrist
    lwrist lhand lthumb
    lhand lfingers
    rclavicle rhumerus
    rhumerus rradius
    rradius rwrist
    rwrist rhand rthumb
    rhand rfingers
  end

#!OML:ASF I:\Actors\actors\Patient Classification 2\Patient 1\Session 1\actor1.ASF
:FULLY-SPECIFIED
:DEGREES
1
root -1.10761 18.1467 5.78846 0.010048 -4.90002 -3.25553
lowerback 2.77155 0.630655 0.788814
upperback -2.03175 0.93187 1.65303
thorax -3.66026 0.466111 1.20485
lowerneck -10.3081 0.0294925 -1.66244
upperneck 18.2848 0.223276 0.590175
head 7.30246 0.044073 0.489039
rclavicle -7.09413e-015 -2.68359e-015
rhumerus -47.7564 0.134661 -87.6926
rradius 39.6731
rwrist 17.2115
rhand -7.63132 -26.8718
rfingers 7.12502
rthumb 18.2636 -56.0344
lclavicle -7.09413e-015 -2.68359e-015
lhumerus -43.4914 3.19167 92.2302
lradius 37.2774
lwrist -10.1367
lhand -4.56247 -24.8038
lfingers 7.12502
lthumb 21.2138 4.05545
rfemur 8.84559 -0.695464 19.08
rtibia 3.02153e-014
rfoot -15.763 -7.62488
rtoes 6.43139
lfemur 17.4734 -6.23438 -14.3242
ltibia -16.447
lfoot -5.77332 21.036
ltoes -10.5777
2
root -1.10767 18.1471 5.78848 0.0225013 -4.8642 -3.22774
lowerback 2.76794 0.621386 0.756362
upperback -2.04106 0.91773 1.63934
thorax -3.66788 0.459724 1.20978
lowerneck -10.3789 -0.0491397 -1.72406
upperneck 18.3526 0.125221 0.601649
head 7.33838 -0.00643265 0.494208
rclavicle -4.00054e-015 2.03257e-014
rhumerus -47.7449 0.0998864 -87.6762
rradius 39.6478
rwrist 17.2149
rhand -6.81479 -27.4794
rfingers 7.12502
rthumb 19.0489 -56.5666
lclavicle -4.00054e-015 2.03257e-014
lhumerus -43.4934 3.16512 92.241
lradius 37.28
lwrist -10.1147
lhand -4.5713 -24.794
lfingers 7.12502
lthumb 21.2053 4.06618
rfemur 8.83775 -0.730895 19.0491
rtibia 6.36111e-015
rfoot -15.7848 -7.61925
rtoes 6.36497
lfemur 17.435 -6.25076 -14.3489
ltibia -16.4234
lfoot -5.77103 21.0183
ltoes -10.5398
3
root -1.1084 18.148 5.78893 0.0321898 -4.84276 -3.21289
lowerback 2.78167 0.603958 0.724563
upperback -2.06434 0.893536 1.63291
thorax -3.69971 0.44842 1.22221
lowerneck -10.3555 -0.0492291 -1.72812
upperneck 18.3639 0.119842 0.629701
head 7.33792 -0.00685835 0.503519
rclavicle 1.32161e-014 -3.97569e-016
rhumerus -47.7686 0.086564 -87.6704
rradius 39.6374
rwrist 17.2609
rhand -6.71971 -27.3973
rfingers 7.12502
rthumb 19.1404 -56.4755
lclavicle 1.32161e-014 -3.97569e-016
lhumerus -43.5377 3.16222 92.2408
lradius 37.3013
lwrist -10.1282
lhand -4.66345 -24.7612
lfingers 7.12502
lthumb 21.1167 4.10886
rfemur 8.83348 -0.75273 19.0358
rtibia 3.18055e-015
rfoot -15.8279 -7.61422
rtoes 6.32288
lfemur 17.4215 -6.23774 -14.3574
ltibia -16.4223
lfoot -5.72937 20.9948
ltoes -10.7181
4
root -1.10867 18.1487 5.78935 0.0341316 -4.83868 -3.21881
lowerback 2.78883 0.594467 0.7117
upperback -2.07327 0.880791 1.63881
thorax -3.71309 0.442496 1.23618
lowerneck -10.3042 -0.0397039 -1.75516
upperneck 18.3497 0.129139 0.669391
head 7.32393 -0.000670395 0.521699
rclavicle -1.39242e-014 -1.3418e-014
rhumerus -47.7984 0.119325 -87.6679
rradius 39.6666
rwrist 17.2786
rhand -6.59601 -27.3851
rfingers 7.12502
rthumb 19.2593 -56.4515
lclavicle -1.39242e-014 -1.3418e-014
lhumerus -43.571 3.16336 92.2565
lradius 37.3283
lwrist -10.1447
lhand -4.74603 -24.7393
lfingers 7.12502
lthumb 21.0374 4.1396
rfemur 8.83562 -0.756787 19.0415
rtibia 1.90833e-014
rfoot -15.8267 -7.59504
rtoes 6.50476
lfemur 17.4166 -6.22863 -14.3478
ltibia -16.4114
lfoot -5.70685 20.9801
ltoes -10.8602
5
root -1.10854 18.1487 5.78924 0.0363878 -4.83185 -3.2291
lowerback 2.79612 0.596934 0.721397
upperback -2.06458 0.884322 1.63404
thorax -3.70805 0.443926 1.22557
lowerneck -10.3328 -0.0284368 -1.75049
upperneck 18.3507 0.149701 0.642391
head 7.32913 0.00710768 0.514083
rclavicle -1.49896e-014 2.01269e-014
rhumerus -47.8002 0.127439 -87.6652
rradius 39.6943
rwrist 17.278
rhand -6.62333 -27.3438
rfingers 7.12502
rthumb 19.2331 -56.4127
lclavicle -1.49896e-014 2.01269e-014
lhumerus -43.5464 3.12324 92.2736
lradius 37.3255
lwrist -10.1435
lhand -4.77849 -24.7571
lfingers 7.12502
lthumb 21.0062 4.12528
rfemur 8.83604 -0.763307 19.05
rtibia 2.22639e-014
rfoot -15.7962 -7.58288
rtoes 6.58149
lfemur 17.409 -6.19011 -14.3291
ltibia -16.4109
lfoot -5.68962 20.9351
ltoes -10.8889
